<?xml version="1.0" encoding="UTF-8" standalone="no"?>
<!-- Created with Inkscape (http://www.inkscape.org/) -->

<svg
   xmlns:dc="http://purl.org/dc/elements/1.1/"
   xmlns:cc="http://creativecommons.org/ns#"
   xmlns:rdf="http://www.w3.org/1999/02/22-rdf-syntax-ns#"
   xmlns:svg="http://www.w3.org/2000/svg"
   xmlns="http://www.w3.org/2000/svg"
   xmlns:sodipodi="http://sodipodi.sourceforge.net/DTD/sodipodi-0.dtd"
   xmlns:inkscape="http://www.inkscape.org/namespaces/inkscape"
   width="156.38499"
   height="156.38499"
   viewBox="0 0 156.385 156.38499"
   id="svg3634"
   version="1.1"
   inkscape:version="0.91 r13725"
   sodipodi:docname="logo-square.svg"
   inkscape:export-filename="/Users/pitr/Workspace/redhat/dynflow/pages/source/images/logo-square.png"
   inkscape:export-xdpi="73.660004"
   inkscape:export-ydpi="73.660004">
  <defs
     id="defs3636" />
  <sodipodi:namedview
     id="base"
     pagecolor="#ffffff"
     bordercolor="#666666"
     borderopacity="1.0"
     inkscape:pageopacity="0.0"
     inkscape:pageshadow="2"
     inkscape:zoom="0.98994949"
     inkscape:cx="-118.07845"
     inkscape:cy="174.77927"
     inkscape:document-units="px"
     inkscape:current-layer="layer1"
     showgrid="false"
     units="px"
     inkscape:window-width="1920"
     inkscape:window-height="977"
     inkscape:window-x="0"
     inkscape:window-y="0"
     inkscape:window-maximized="1" />
  <metadata
     id="metadata3639">
    <rdf:RDF>
      <cc:Work
         rdf:about="">
        <dc:format>image/svg+xml</dc:format>
        <dc:type
           rdf:resource="http://purl.org/dc/dcmitype/StillImage" />
        <dc:title />
      </cc:Work>
    </rdf:RDF>
  </metadata>
  <g
     inkscape:label="Vrstva 1"
     inkscape:groupmode="layer"
     id="layer1"
     transform="translate(0,-895.97718)">
    <g
       id="g3650"
       transform="matrix(0.96003386,0,0,0.96003386,-198.84571,240.90468)">
      <path
         inkscape:connector-curvature="0"
         id="path4180"
         d="m 273.38806,813.90518 c 10.67131,0 21.34262,0 32.01393,0 2.80651,-14.44298 5.61302,-28.88596 8.41953,-43.32896 14.0093,0 28.0186,0 42.0279,0 1.32345,-6.63958 2.64689,-13.27917 3.97034,-19.91875 -14.03211,0 -28.06422,0 -42.09632,0 1.2318,-6.34315 2.46359,-12.6863 3.69539,-19.02944 14.89948,0 29.79898,0 44.69847,0 1.30064,-6.63959 2.60127,-13.27917 3.90192,-19.91876 -21.72018,0.008 -43.44037,0.0166 -65.16055,0.025 -13.50291,13.09022 -17.93615,33.58442 -13.92119,51.63274 4.1749,18.53456 -3.50427,38.1567 -17.54942,50.53818 z"
         style="font-style:italic;font-variant:normal;font-weight:bold;font-stretch:normal;font-size:199.62593079px;line-height:521.00000381%;font-family:Sans;-inkscape-font-specification:'Sans Bold Italic';letter-spacing:-15.00960922;word-spacing:0px;fill:#f78a29;fill-opacity:1;stroke:none;stroke-width:1px;stroke-linecap:butt;stroke-linejoin:miter;stroke-opacity:1" />
      <path
         inkscape:connector-curvature="0"
         id="path4182"
         d="m 302.88929,711.73558 c -8.97951,0.003 -17.95902,0.007 -26.93853,0.0105 -2.53902,13.13095 -5.07803,26.26191 -7.61704,39.39286 -3.94471,-7.6785 -12.21396,-12.70145 -20.86255,-12.52779 -13.12339,-0.65457 -24.86575,7.77854 -31.69186,18.45936 -7.81528,12.04757 -10.96616,27.6448 -6.82946,41.55316 2.90262,9.5693 12.03429,16.63718 22.02555,17.062 9.83511,1.18439 19.6167,-3.36795 25.89418,-10.86051 2.40839,-3.54988 0.50699,1.60166 0.39438,3.15516 -0.40232,1.97496 -0.80464,3.9499 -1.20696,5.92485 4.97717,0 9.95433,0 14.9315,0 6.23473,-4.38616 10.69735,-10.95265 14.26689,-17.58865 5.72598,-10.85952 6.75245,-23.72144 3.82667,-35.55166 -3.03798,-17.2946 1.49379,-36.20142 13.80723,-49.02929 z m -50.96838,43.93282 c 5.88513,-0.46419 11.40435,4.14517 11.87951,10.04989 0.83507,10.60817 -1.53732,22.75724 -10.22572,29.76296 -5.55537,4.22384 -15.26841,4.98105 -19.7752,-1.15819 -3.69118,-6.08712 -2.40972,-13.72962 -1.09341,-20.34581 2.18961,-8.98104 8.97423,-18.5654 19.21482,-18.30885 z"
         style="font-style:italic;font-variant:normal;font-weight:bold;font-stretch:normal;font-size:199.62593079px;line-height:521.00000381%;font-family:Sans;-inkscape-font-specification:'Sans Bold Italic';letter-spacing:-15.00960922;word-spacing:0px;fill:#289fd5;fill-opacity:1;stroke:none;stroke-width:1px;stroke-linecap:butt;stroke-linejoin:miter;stroke-opacity:1" />
    </g>
  </g>
</svg>
